<svg version="1.2" xmlns="http://www.w3.org/2000/svg" viewBox="0 0 620 620" width="620" height="620">
	<style>
		.s0 { fill: #fefefe } 
		.s1 { fill: #020101 } 
	</style>
	<path class="s0" d="m389.62 67.81h14.23l19.98 1.21 21.49 2.12 4.85 0.61-0.31 4.24-1.51 8.47-1.82 7.27-2.72 8.17-3.03 7.27-4.84 9.69-2.73 4.54-3.63 5.14-3.94 5.15-2.72 3.33-2.42 2.42-1.21 1.52-2.42 2.11-2.43 2.43-3.33 2.72-4.24 3.33-5.75 3.63-4.84 2.73-7.57 3.63-9.99 3.33-7.87 1.82-5.45 0.91-6.96 0.6h-13.32l-8.18-0.91-8.47-1.51-8.78-2.12-11.81-3.63-11.81-4.54-7.87-3.64-8.47-4.23-2.43-1.52 0.61-1.21 2.42-2.12 10.29-8.48 5.45-3.93 9.09-6.06 6.66-3.93 5.75-3.33 8.78-4.54 8.17-3.63 12.72-4.55 9.99-3.33 13.92-3.63 9.99-2.12 6.97-1.21h-7.88l-12.41 0.91-9.69 1.21-13.01 2.42-8.48 2.12-7.57 2.42-8.47 3.03-10.9 4.54-5.75 2.73-6.97 3.93-6.05 3.63-6.97 4.85-3.63 2.72-3.93 3.33-1.21 0.61-0.31 0.91h-0.6v0.6l-2.42 2.12-4.24 4.54-3.64 4.85-3.02 4.54-2.42 4.24-3.03 7.26-2.42 7.87-1.21 6.36-0.31 4.24v5.14l0.61 6.97 1.81 7.26 2.43 6.66 3.33 6.97 3.93 6.05 3.63 4.24 3.33 3.63 2.12 2.42 3.33 2.73 3.64 3.03 4.54 3.02 5.75 3.64 6.05 3.33 4.85 2.42 7.26 3.33 9.09 3.93 10.59 5.45 7.27 4.24 8.47 5.15 3.64 2.42 5.45 4.24 3.02 2.42 4.24 3.63 3.03 2.73 1.81 1.51 2.12 2.42 3.94 3.94 5.45 6.66 3.63 4.84 3.94 6.36 4.24 7.57 3.02 6.66 3.94 10.59 2.42 9.39 1.51 9.08 0.61 5.45 0.3 5.15v13.92l-0.91 10.6-1.21 7.57-2.72 11.5-1.82 6.05-3.33 9.09-3.63 8.47-2.42 5.15-3.03 5.45-3.94 6.05-4.23 5.76-3.33 3.93-1.21 1.51-0.61 0.61 4.54 4.54 2.42 2.12 4.85 4.54 5.45 5.45 2.42 2.12 2.72 2.72 2.42 2.12 3.64 3.33 3.33 3.33 2.42 2.12 3.03 2.73 4.23 3.63 3.94 3.63 3.33 2.73 2.72 2.42 2.73 2.12 4.24 3.33 3.93 3.33 3.03 2.42 5.15 3.94 4.84 3.33 3.63 2.72 4.24 3.03 5.75 3.93 4.54 3.03 14.54 9.08 4.54 2.73 5.45 3.02 6.96 3.64 4.84 2.72 18.17 9.08 8.78 3.64 7.56 3.33 12.11 4.54 16.35 5.75 16.95 5.15 12.42 3.33 15.74 3.63 0.3 0.91-4.54 1.51-8.48 1.82-13.32 2.12-19.98 2.72-13.62 1.52-24.22 2.42-27.24 2.12-23.62 1.51-27.85 1.51-31.79 1.21-43.89 1.22-18.17 0.3h-83.55l-35.12-0.91-36.02-1.21-22.71-0.91-38.75-2.42-31.79-2.42-23.61-2.12-21.8-2.42-21.49-2.73-16.95-2.72-7.88-1.82-0.3-0.61 3.63-0.9 17.56-3.64 12.72-3.02 12.11-3.33 7.26-2.12 12.42-3.94 13.32-4.84 9.68-3.94 8.78-3.63 7.57-3.63 11.2-5.45 5.45-3.03 7.27-3.63 6.35-3.94 4.24-2.72 6.36-3.94 10.9-7.26 5.14-3.64 4.24-3.33 5.45-4.24 5.15-3.93 8.48-7.27 3.63-3.33 2.42-2.12 3.94-3.33 13.32-13.32 1.51-1.21 0.3-0.6h0.61l0.6-1.21 4.24-4.24 2.12-2.42 2.73-2.73 2.11-2.42 3.94-3.94 2.12-2.42 4.84-5.14 3.64-3.94 4.84-4.54 2.42-2.12 3.03-3.03 3.33-2.72 3.63-3.03 8.78-5.75 4.84-2.73 8.18-3.33 7.26-2.11 5.15-0.91 2.73-0.31h11.8l5.45 0.61 6.36 1.51h1.21l2.42-6.05 2.73-8.48 1.51-6.96 0.91-7.87 0.3-4.24v-4.54l-0.91-9.39-1.51-8.77-1.82-6.97-2.72-7.26-3.64-7.87-3.02-5.45-3.33-4.85-3.33-4.24-3.03-3.33-2.12-2.42-2.12-2.12-2.42-2.12-3.94-3.33-4.84-3.63-6.96-4.84-6.66-3.94-7.87-4.54-14.84-8.48-6.36-3.93-7.26-4.85-4.24-3.02-5.45-4.24-4.84-3.63-4.85-4.54-2.42-2.12-4.24-4.54-2.11-2.12-2.73-3.33-3.63-4.54-3.94-6.06-2.72-4.54-4.24-8.17-3.03-7.57-2.42-7.87-2.12-9.09-1.21-9.99-0.3-5.14v-6.66l0.91-9.08 1.21-6.66 2.12-8.48 2.11-6.06 3.33-7.56 3.64-6.97 4.84-7.26 2.42-3.33 3.33-3.94 2.73-3.03 4.54-4.84 3.63-3.63 3.33-2.73 4.54-3.63 5.75-4.24 5.45-3.63 6.36-3.63 8.48-4.54 9.69-3.94 5.75-2.12 10.9-3.03 9.38-2.12 7.27-1.51 7.87-3.33 9.68-4.24 7.57-2.72 7.57-2.42 9.99-2.43 9.39-1.81 9.68-1.21 11.21-0.91z"/>
	<path class="s1" d="m302.13 446.53h8.78l6.36 0.91 7.56 2.12 6.36 2.73 4.54 2.42 5.45 3.33 3.63 2.42 3.33 2.42 4.85 3.94 3.33 2.72 3.03 2.73 3.33 2.72 4.84 4.54 8.17 8.18 2.43 2.11 6.35 6.36 3.03 2.73 5.15 5.14 2.42 2.12 3.63 3.33 6.06 5.45 3.33 2.73 3.93 3.33 4.24 3.33 4.84 3.93 6.06 4.54 5.14 3.94 4.85 3.33 10.29 6.96 4.54 3.03 5.45 3.33 13.32 7.87 9.08 4.84 5.76 3.03 9.99 4.84 8.17 3.64 12.41 4.84 4.54 1.51 0.31 0.61-8.18-0.91-13.32-1.81-13.02-2.43-14.22-3.02-19.38-5.15-13.32-3.94-8.17-2.72-7.57-2.72-8.18-3.03-8.17-3.33-7.57-3.03-12.11-5.45-8.47-3.93-5.15-2.43-13.93-6.96-5.75-3.03-8.17-4.23-6.66-3.33-7.57-3.34-8.17-3.33-7.27-2.42-6.66-1.51-4.24-0.61h-11.8l-6.67 0.91-9.08 2.12-7.26 2.42-11.81 4.85-4.84 2.12-4.54 2.42-6.97 3.33-6.96 3.93-4.84 2.43-12.11 5.75-9.39 3.93-9.99 3.94-13.32 4.54-13.32 3.63-11.81 2.73-1.21-0.31 6.97-3.93 6.05-3.63 4.85-3.03 5.44-3.94 5.15-3.63 4.24-3.33 3.63-2.72 3.33-2.73 6.06-5.45 4.54-4.24 3.63-3.33 3.94-3.63 2.72-3.03 2.42-2.42 2.12-2.42 3.63-3.94 2.12-2.12 2.12-2.42 7.27-8.47 2.12-2.43 6.66-7.87 2.72-3.33 2.12-2.12 2.12-2.42 4.84-5.14 5.76-5.76 3.33-2.72 3.93-3.03 4.54-3.03 5.45-3.02 6.06-2.42 5.45-1.52z"/>
	<path class="s1" d="m310.3 277l2.73 0.3 7.87 2.12 5.75 2.12 8.17 3.94 5.15 3.03 5.15 3.63 4.84 3.93 3.03 2.73 2.42 2.12 3.63 3.93 2.73 3.33 2.12 2.43 4.23 6.35 3.64 6.66 3.03 6.66 2.11 5.76 2.12 6.96 1.52 6.66 0.91 5.75 0.3 3.03v14.83l2.72-10.9 0.91-5.14 0.3-3.64 0.31-11.8h0.6l0.61 3.02 0.6 6.97v6.35l-0.3 6.66-1.21 9.39-1.82 8.78-2.12 8.48-3.33 9.38-3.63 8.48-3.63 7.57-5.15 8.47-3.33 4.85-3.93 4.84-3.64 3.93-2.12 2.12-2.12 1.82-2.11-0.3 0.3-1.52 3.63-5.75 5.15-9.99 3.93-9.38 3.33-9.99 1.82-7.57 1.51-8.18 0.91-10.29v-14.53l-0.91-8.48-1.81-9.38-2.12-7.57-3.33-8.48-4.54-9.38-3.64-5.75-3.63-5.15-3.03-3.93-3.33-3.64-2.72-3.02-3.94-3.94-2.42-2.12-3.03-2.72-5.14-3.94-5.75-4.24-4.24-2.72-6.06-3.64z"/>
	<path class="s1" d="m307.28 105.96l0.9 0.3-9.38 4.54-6.66 3.03-6.96 3.93-6.97 4.24-4.24 3.03-3.33 2.72-3.93 3.33-3.33 2.73-4.54 4.54-3.33 4.24-3.63 5.14-3.64 6.06-3.33 8.17-1.81 6.36-0.91 4.54-0.61 5.15v7.57l0.61 5.75 1.81 7.57 1.82 5.45 2.42 5.44 3.03 4.85 3.63 4.84 3.33 3.94 6.36 6.36 4.24 3.33 3.33 2.42 6.96 4.54 4.84 2.72 0.61 0.61-1.82-0.3-8.78-3.64-6.05-3.02-6.96-4.24-3.94-3.03-4.54-4.24-3.03-3.03-3.33-4.23-2.12-3.03-3.02-5.15-2.12-4.54-2.73-8.17-1.51-7.57-0.61-5.75v-4.85l0.61-6.66 1.51-7.57 2.42-6.96 3.33-6.96 3.94-6.36 3.94-4.84 3.63-3.94 3.93-3.63 3.94-3.33 5.75-4.24 7.87-4.54 7.27-3.94 5.45-2.42 3.93-1.81 8.18-3.03 6.96-2.12z"/>
</svg>